<svg xmlns="http://www.w3.org/2000/svg" viewBox="0 0 40 40"><path d="M38.974 24.732C36.36 35.212 25.747 41.59 15.267 38.976 4.79 36.363-1.587 25.749 1.027 15.27 3.638 4.79 14.252-1.589 24.729 1.024c10.48 2.612 16.857 13.228 14.245 23.708z" fill="#f7931a"/><path d="M28.622 17.213c.389-2.603-1.593-4.002-4.303-4.935l.88-3.526-2.147-.535-.856 3.433a89.778 89.778 0 00-1.72-.405l.863-3.455-2.145-.535-.88 3.524a71.809 71.809 0 01-1.37-.322l.002-.01-2.96-.74L13.415 12s1.592.365 1.559.387c.87.217 1.026.792 1 1.248l-1.001 4.017c.06.015.137.037.223.072l-.227-.057-1.404 5.627c-.106.264-.376.66-.983.51.021.031-1.56-.39-1.56-.39l-1.066 2.458 2.793.696c.52.13 1.03.266 1.53.395l-.888 3.566 2.144.535.88-3.528c.585.159 1.154.305 1.71.443l-.877 3.512 2.147.535.888-3.56c3.66.693 6.412.414 7.57-2.896.934-2.666-.046-4.203-1.972-5.206 1.402-.323 2.459-1.245 2.74-3.15zm-4.904 6.877c-.663 2.665-5.15 1.224-6.606.863l1.179-4.725c1.455.363 6.12 1.082 5.427 3.862zm.664-6.915c-.606 2.424-4.34 1.192-5.552.89l1.068-4.285c1.212.302 5.114.866 4.484 3.395z" fill="#fff"/></svg>